<?xml version="1.0" encoding="utf-8"?>
<!-- Generator: Adobe Illustrator 22.0.1, SVG Export Plug-In . SVG Version: 6.00 Build 0)  -->
<svg version="1.1" id="Layer_1" xmlns="http://www.w3.org/2000/svg" xmlns:xlink="http://www.w3.org/1999/xlink" x="0px" y="0px"
	 width="250.1px" height="74.39px" viewBox="0 0 250.1 74.39" enable-background="new 0 0 250.1 74.39" xml:space="preserve">
<g>
	<path fill-rule="evenodd" clip-rule="evenodd" fill="#0065BD" d="M92.69,30.16c0.85-0.12,3.44-0.79,4.57-1.91
		c2.72-2.69,5.96-6.29,6.97-7.26c0.62,0.11,5.59,0.96,5.59,0.96s4.04-3.74,5.94-5.19c2.82,0.67,6.08,1.7,6.08,1.7
		s6.62-4.47,10.51-6.64c0,0,3.66,1.53,20.99,16.65c1.02,0.89,2.66,1.48,3.86,1.7H92.69z M82.33,30.16l1.23-3.8
		c-1.62,0.91-3.54,1.63-5.89,1.7C35.51,28.68,3.4,29.4,0.05,30.16H82.33z M250.05,30.16c-3.35-0.76-35.47-1.48-77.62-2.11
		c-2.35-0.07-4.27-0.79-5.89-1.7l1.23,3.8H250.05z M90.8,28.56c4.89-15.56,17.41-24.9,34.3-24.9s29.29,9.35,34.3,24.9
		c0.66,2.07,5.28,1.55,5.28,1.55c-4.39-17.72-20.47-30.09-39.63-30.09c-19.16,0-35.24,12.37-39.63,30.09
		C85.42,30.11,90.15,30.61,90.8,28.56"/>
	<path fill-rule="evenodd" clip-rule="evenodd" fill="#666666" d="M8.92,36.85v1.75c-0.52-0.29-1-0.5-1.45-0.64
		c-0.45-0.14-0.91-0.2-1.39-0.2c-0.72,0-1.36,0.16-1.93,0.47c-0.57,0.32-1.01,0.76-1.33,1.33c-0.31,0.57-0.47,1.21-0.47,1.94
		c0,0.79,0.17,1.51,0.52,2.16c0.35,0.66,0.82,1.17,1.42,1.55c0.6,0.38,1.26,0.57,1.99,0.57c0.54,0,1.08-0.08,1.6-0.23
		c0.52-0.16,1.13-0.42,1.83-0.78l-0.79,1.78c-0.28,0.11-0.55,0.2-0.8,0.26c-0.25,0.07-0.51,0.11-0.77,0.14
		c-0.26,0.03-0.54,0.05-0.85,0.05c-0.87,0-1.67-0.13-2.41-0.38c-0.73-0.25-1.36-0.61-1.89-1.07c-0.53-0.47-0.93-1.03-1.21-1.68
		c-0.27-0.65-0.41-1.36-0.41-2.13c0-1,0.24-1.9,0.71-2.71c0.48-0.81,1.14-1.44,1.98-1.9c0.85-0.46,1.79-0.69,2.84-0.69
		C6.9,36.46,7.83,36.59,8.92,36.85 M14.35,41.99l1.6-3.99l1.58,3.99H14.35z M18.85,45.3c0.18,0.44,0.27,0.73,0.27,0.86
		c0,0.12-0.03,0.21-0.09,0.28c-0.06,0.07-0.22,0.17-0.47,0.33h3.24c-0.36-0.21-0.64-0.45-0.84-0.72c-0.2-0.27-0.42-0.72-0.67-1.34
		l-3.29-8h-2.48c0.32,0.15,0.48,0.35,0.48,0.59c0,0.15-0.06,0.38-0.18,0.69l-2.75,6.71c-0.26,0.66-0.48,1.11-0.65,1.36
		c-0.17,0.24-0.44,0.47-0.8,0.7h2.87c-0.21-0.11-0.36-0.22-0.44-0.31c-0.08-0.1-0.12-0.22-0.12-0.37c0-0.22,0.06-0.48,0.17-0.78
		l0.89-2.33h3.95L18.85,45.3z M24.84,38.66c0-0.44,0.02-0.78,0.05-1.02c0.04-0.24,0.11-0.44,0.2-0.57c0.1-0.14,0.24-0.25,0.44-0.35
		h-2.96c0.19,0.1,0.34,0.22,0.44,0.36c0.1,0.14,0.17,0.33,0.2,0.57c0.04,0.24,0.06,0.58,0.06,1.02v6.15c0,0.44-0.02,0.78-0.06,1.02
		c-0.03,0.24-0.1,0.43-0.2,0.57c-0.1,0.14-0.25,0.25-0.44,0.35h6.38l0.83-2.03c-0.51,0.36-0.98,0.61-1.38,0.74
		c-0.4,0.13-0.89,0.2-1.46,0.2c-0.67,0-1.37-0.05-2.1-0.16V38.66 M32.16,44.81c0,0.44-0.02,0.78-0.06,1.02
		c-0.03,0.24-0.1,0.43-0.2,0.57c-0.1,0.14-0.25,0.25-0.44,0.35h2.96c-0.2-0.1-0.34-0.22-0.44-0.35c-0.1-0.14-0.16-0.33-0.2-0.57
		c-0.03-0.25-0.05-0.59-0.05-1.02v-6.15c0-0.44,0.02-0.78,0.05-1.02c0.04-0.24,0.11-0.44,0.2-0.57c0.1-0.14,0.24-0.25,0.44-0.35
		h-2.96c0.19,0.1,0.34,0.22,0.44,0.36c0.1,0.14,0.17,0.33,0.2,0.57c0.04,0.24,0.06,0.58,0.06,1.02V44.81 M40.94,41.84
		c0.36,0,0.62,0.03,0.79,0.09c0.18,0.06,0.32,0.17,0.43,0.32v-1.62c-0.14,0.07-0.32,0.1-0.53,0.1h-2.09v-2.85
		c0.18-0.03,0.41-0.06,0.68-0.08c0.27-0.02,0.58-0.03,0.95-0.03c0.49,0,0.87,0.04,1.13,0.12c0.26,0.08,0.52,0.24,0.77,0.47v-1.77
		c-0.16,0.06-0.36,0.09-0.59,0.09h-5.19c0.19,0.1,0.34,0.22,0.44,0.36c0.1,0.14,0.17,0.33,0.2,0.57c0.04,0.24,0.06,0.58,0.06,1.02
		v6.16c0,0.44-0.02,0.78-0.06,1.02c-0.03,0.24-0.1,0.43-0.2,0.57c-0.1,0.14-0.25,0.25-0.44,0.35h2.96c-0.2-0.1-0.34-0.22-0.44-0.35
		c-0.1-0.14-0.16-0.33-0.2-0.57c-0.03-0.25-0.05-0.59-0.05-1.02v-2.97H40.94z M50.16,37.54c1.2,0,2.18,0.44,2.95,1.33
		c0.71,0.85,1.06,1.86,1.06,3.04c0,0.58-0.09,1.12-0.28,1.62c-0.18,0.49-0.45,0.92-0.81,1.28c-0.35,0.36-0.77,0.63-1.26,0.83
		c-0.49,0.19-1.01,0.28-1.58,0.28c-0.57,0-1.08-0.09-1.53-0.28c-0.44-0.19-0.85-0.48-1.21-0.87c-0.26-0.28-0.49-0.6-0.68-0.95
		c-0.19-0.35-0.33-0.73-0.43-1.12c-0.1-0.39-0.14-0.78-0.14-1.17c0-0.56,0.1-1.09,0.29-1.6c0.19-0.51,0.46-0.93,0.79-1.27
		c0.35-0.34,0.77-0.62,1.28-0.82C49.1,37.65,49.62,37.54,50.16,37.54 M50.38,36.45c-1.09,0-2.09,0.23-3,0.7
		c-0.91,0.46-1.62,1.1-2.13,1.92c-0.52,0.81-0.77,1.72-0.77,2.71c0,0.96,0.25,1.84,0.75,2.64c0.51,0.8,1.19,1.43,2.07,1.89
		c0.88,0.46,1.83,0.69,2.87,0.69c1.05,0,2.02-0.24,2.9-0.71c0.88-0.48,1.58-1.12,2.09-1.94c0.51-0.82,0.77-1.72,0.77-2.69
		c0-0.69-0.14-1.37-0.43-2.04c-0.28-0.67-0.67-1.23-1.15-1.68c-0.31-0.3-0.68-0.56-1.13-0.79c-0.44-0.24-0.9-0.41-1.39-0.53
		C51.35,36.51,50.86,36.45,50.38,36.45 M59.72,37.76c0.42-0.08,0.78-0.11,1.09-0.11c0.57,0,1.03,0.16,1.37,0.47
		c0.35,0.32,0.53,0.72,0.53,1.22c0,1.17-0.87,1.9-2.61,2.19c0.42,0.7,0.86,1.36,1.32,2c0.46,0.64,0.93,1.24,1.42,1.8
		c0.34,0.39,0.63,0.71,0.88,0.93c0.25,0.22,0.5,0.37,0.74,0.46c0.24,0.08,0.5,0.13,0.79,0.13c0.18,0,0.66-0.03,1.43-0.08
		c-0.62-0.32-1.28-0.84-1.99-1.57c-0.7-0.73-1.63-1.85-2.77-3.35c0.48-0.12,0.92-0.31,1.3-0.57c0.39-0.27,0.69-0.58,0.9-0.93
		c0.22-0.36,0.33-0.73,0.33-1.12c0-0.37-0.09-0.73-0.27-1.07c-0.18-0.35-0.44-0.65-0.76-0.88c-0.54-0.4-1.31-0.59-2.31-0.59
		c-0.26,0-0.49,0-0.66,0.01c-0.23,0.01-0.47,0.01-0.72,0.01h-2.27c0.19,0.1,0.34,0.22,0.44,0.36c0.1,0.14,0.17,0.33,0.2,0.57
		c0.04,0.24,0.06,0.58,0.06,1.02v6.15c0,0.44-0.02,0.78-0.06,1.02c-0.03,0.24-0.1,0.43-0.2,0.57c-0.1,0.14-0.25,0.25-0.44,0.35h2.96
		c-0.2-0.1-0.34-0.22-0.44-0.35c-0.1-0.14-0.16-0.33-0.2-0.57c-0.03-0.25-0.05-0.59-0.05-1.02V37.76 M75.16,45.65
		c0.32,0.42,0.65,0.76,0.98,1.02c0.34,0.25,0.72,0.45,1.16,0.59V38.5c0-0.33,0.02-0.6,0.07-0.82c0.05-0.22,0.13-0.4,0.25-0.54
		c0.12-0.15,0.29-0.29,0.51-0.43h-2.79c0.33,0.21,0.55,0.43,0.66,0.67c0.12,0.24,0.17,0.61,0.17,1.12v5.97l-5.78-7.2
		c-0.2-0.27-0.32-0.46-0.37-0.56h-2.28c0.21,0.13,0.37,0.27,0.48,0.42c0.12,0.15,0.2,0.33,0.25,0.54c0.05,0.21,0.08,0.49,0.08,0.83
		v6.47c0,0.33-0.02,0.6-0.07,0.82c-0.04,0.22-0.13,0.4-0.25,0.54s-0.29,0.29-0.51,0.43h2.78c-0.17-0.11-0.31-0.22-0.41-0.33
		c-0.11-0.11-0.19-0.23-0.25-0.36c-0.05-0.13-0.09-0.29-0.12-0.48c-0.02-0.19-0.04-0.4-0.04-0.62v-6.11L75.16,45.65z M81.36,44.81
		c0,0.44-0.02,0.78-0.06,1.02c-0.03,0.24-0.1,0.43-0.2,0.57c-0.1,0.14-0.25,0.25-0.44,0.35h2.96c-0.2-0.1-0.34-0.22-0.44-0.35
		c-0.1-0.14-0.16-0.33-0.2-0.57c-0.03-0.25-0.05-0.59-0.05-1.02v-6.15c0-0.44,0.02-0.78,0.05-1.02c0.04-0.24,0.11-0.44,0.2-0.57
		c0.1-0.14,0.24-0.25,0.44-0.35h-2.96c0.19,0.1,0.34,0.22,0.44,0.36c0.1,0.14,0.17,0.33,0.2,0.57c0.04,0.24,0.06,0.58,0.06,1.02
		V44.81 M89.15,41.99l1.6-3.99l1.58,3.99H89.15z M93.64,45.3c0.18,0.44,0.27,0.73,0.27,0.86c0,0.12-0.03,0.21-0.09,0.28
		c-0.06,0.07-0.21,0.17-0.47,0.33h3.24c-0.36-0.21-0.64-0.45-0.84-0.72c-0.2-0.27-0.42-0.72-0.67-1.34l-3.29-8h-2.48
		c0.32,0.15,0.48,0.35,0.48,0.59c0,0.15-0.06,0.38-0.18,0.69l-2.75,6.71c-0.26,0.66-0.48,1.11-0.65,1.36
		c-0.17,0.24-0.44,0.47-0.8,0.7h2.87c-0.21-0.11-0.36-0.22-0.44-0.31c-0.08-0.1-0.12-0.22-0.12-0.37c0-0.22,0.06-0.48,0.17-0.78
		l0.89-2.33h3.95L93.64,45.3z M109.89,36.79c-0.8-0.22-1.6-0.33-2.38-0.33c-0.79,0-1.47,0.11-2.06,0.33
		c-0.58,0.22-1.03,0.54-1.35,0.95c-0.32,0.4-0.48,0.88-0.48,1.43c0,0.33,0.07,0.65,0.22,0.96c0.15,0.32,0.35,0.58,0.59,0.81
		c0.23,0.2,0.5,0.39,0.81,0.57c0.31,0.17,0.76,0.39,1.35,0.64c0.65,0.29,1.1,0.5,1.37,0.65c0.27,0.14,0.48,0.28,0.63,0.42
		c0.34,0.3,0.51,0.66,0.51,1.09c0,0.3-0.1,0.56-0.31,0.8c-0.2,0.23-0.48,0.42-0.85,0.56c-0.36,0.14-0.75,0.2-1.18,0.2
		c-1.24,0-2.39-0.4-3.43-1.22l0.47,1.89c0.5,0.17,0.96,0.29,1.38,0.37c0.42,0.08,0.88,0.11,1.37,0.11c1.38,0,2.47-0.38,3.27-1.13
		c0.3-0.29,0.53-0.61,0.7-0.97c0.17-0.36,0.26-0.73,0.26-1.1c0-0.33-0.08-0.64-0.22-0.93c-0.15-0.29-0.35-0.53-0.62-0.73
		c-0.23-0.19-0.49-0.36-0.79-0.52c-0.29-0.15-0.79-0.39-1.49-0.71c-0.65-0.3-1.13-0.54-1.45-0.73c-0.32-0.19-0.54-0.38-0.67-0.57
		c-0.13-0.19-0.19-0.42-0.19-0.67c0-0.42,0.19-0.77,0.56-1.03c0.38-0.27,0.88-0.4,1.49-0.4c0.46,0,0.9,0.09,1.32,0.26
		c0.43,0.17,0.81,0.42,1.15,0.74V36.79 M120.01,36.6c-0.06,0.02-0.16,0.04-0.31,0.08c0.03,0-0.17,0.01-0.61,0.03h-5.87
		c-0.31,0-0.58-0.04-0.8-0.11l-0.58,1.82c0.31-0.23,0.6-0.38,0.87-0.46c0.27-0.08,0.66-0.12,1.15-0.12c0.55,0,0.97,0.02,1.26,0.05
		v6.92c0,0.44-0.02,0.78-0.06,1.02c-0.04,0.24-0.11,0.44-0.2,0.57c-0.1,0.14-0.24,0.25-0.43,0.35h3.09
		c-0.22-0.14-0.39-0.28-0.51-0.42c-0.12-0.15-0.2-0.33-0.25-0.55c-0.05-0.22-0.07-0.49-0.07-0.82v-7.07h0.25
		c0.5-0.03,0.87-0.05,1.1-0.05c0.44,0,0.77,0.04,0.98,0.13c0.21,0.08,0.37,0.23,0.48,0.45L120.01,36.6 M123.78,41.99l1.6-3.99
		l1.58,3.99H123.78z M128.27,45.3c0.18,0.44,0.27,0.73,0.27,0.86c0,0.12-0.03,0.21-0.09,0.28c-0.06,0.07-0.22,0.17-0.47,0.33h3.24
		c-0.36-0.21-0.64-0.45-0.84-0.72c-0.2-0.27-0.42-0.72-0.67-1.34l-3.29-8h-2.48c0.32,0.15,0.48,0.35,0.48,0.59
		c0,0.15-0.06,0.38-0.18,0.69l-2.75,6.71c-0.26,0.66-0.48,1.11-0.65,1.36c-0.17,0.24-0.44,0.47-0.8,0.7h2.87
		c-0.21-0.11-0.36-0.22-0.44-0.31c-0.08-0.1-0.12-0.22-0.12-0.37c0-0.22,0.06-0.48,0.17-0.78l0.89-2.33h3.95L128.27,45.3z
		 M139.3,36.6c-0.06,0.02-0.16,0.04-0.31,0.08c0.03,0-0.17,0.01-0.61,0.03h-5.87c-0.31,0-0.58-0.04-0.79-0.11l-0.58,1.82
		c0.31-0.23,0.6-0.38,0.87-0.46c0.27-0.08,0.66-0.12,1.15-0.12c0.55,0,0.97,0.02,1.26,0.05v6.92c0,0.44-0.02,0.78-0.06,1.02
		c-0.04,0.24-0.11,0.44-0.2,0.57c-0.1,0.14-0.24,0.25-0.43,0.35h3.09c-0.22-0.14-0.39-0.28-0.51-0.42c-0.12-0.15-0.2-0.33-0.25-0.55
		c-0.05-0.22-0.07-0.49-0.07-0.82v-7.07h0.25c0.51-0.03,0.87-0.05,1.1-0.05c0.44,0,0.77,0.04,0.98,0.13
		c0.21,0.08,0.37,0.23,0.48,0.45L139.3,36.6 M144.93,41.84c0.36,0,0.62,0.03,0.79,0.09c0.17,0.06,0.32,0.17,0.43,0.32v-1.62
		c-0.14,0.07-0.32,0.1-0.53,0.1h-2.09v-2.85c0.41-0.07,0.95-0.11,1.61-0.11c0.5,0,0.88,0.04,1.14,0.13
		c0.27,0.08,0.52,0.24,0.77,0.48v-1.78c-0.16,0.06-0.36,0.09-0.59,0.09h-5.19c0.2,0.1,0.34,0.22,0.44,0.36
		c0.1,0.13,0.16,0.32,0.2,0.56c0.04,0.24,0.06,0.58,0.06,1.03v6.13c0,0.45-0.02,0.79-0.06,1.04c-0.03,0.24-0.1,0.43-0.2,0.57
		c-0.1,0.14-0.25,0.26-0.44,0.36h6.51l0.72-2c-0.42,0.31-0.87,0.54-1.34,0.67c-0.47,0.13-1.04,0.2-1.7,0.2
		c-0.62,0-1.26-0.05-1.92-0.16v-3.63H144.93z M165.18,46.76c-0.19-0.1-0.33-0.22-0.43-0.35c-0.1-0.14-0.17-0.33-0.21-0.57
		c-0.04-0.24-0.06-0.58-0.06-1.03v-6.15c0-0.45,0.02-0.79,0.06-1.03c0.04-0.24,0.11-0.43,0.21-0.57c0.1-0.14,0.25-0.25,0.43-0.35
		h-2.96c0.19,0.1,0.34,0.22,0.43,0.36c0.1,0.13,0.16,0.32,0.2,0.56c0.04,0.25,0.06,0.59,0.06,1.02v4.97c0,0.3-0.02,0.54-0.07,0.71
		c-0.04,0.17-0.13,0.34-0.25,0.5c-0.23,0.32-0.55,0.58-0.95,0.77c-0.4,0.19-0.83,0.28-1.29,0.28c-0.39,0-0.77-0.07-1.12-0.21
		c-0.35-0.15-0.64-0.36-0.87-0.63c-0.21-0.25-0.36-0.51-0.43-0.78c-0.07-0.27-0.11-0.66-0.11-1.17v-4.44c0-0.44,0.02-0.78,0.06-1.02
		c0.04-0.24,0.1-0.43,0.2-0.56c0.1-0.14,0.24-0.26,0.43-0.36h-2.96c0.19,0.1,0.34,0.22,0.44,0.36c0.1,0.14,0.17,0.33,0.2,0.57
		c0.04,0.24,0.06,0.58,0.06,1.02v4.44c0,0.42,0.01,0.77,0.03,1.02c0.02,0.25,0.06,0.47,0.11,0.65c0.05,0.18,0.13,0.36,0.23,0.55
		c0.27,0.52,0.69,0.93,1.27,1.24c0.58,0.3,1.25,0.45,1.99,0.45c1.32,0,2.35-0.44,3.09-1.31v1.06H165.18z M175.2,45.65
		c0.32,0.42,0.65,0.76,0.98,1.02c0.34,0.25,0.72,0.45,1.16,0.59V38.5c0-0.33,0.02-0.6,0.07-0.82c0.05-0.22,0.13-0.4,0.25-0.54
		c0.12-0.15,0.29-0.29,0.51-0.43h-2.79c0.33,0.21,0.55,0.43,0.66,0.67c0.12,0.24,0.17,0.61,0.17,1.12v5.97l-5.78-7.2
		c-0.2-0.27-0.32-0.46-0.37-0.56h-2.28c0.21,0.13,0.37,0.27,0.48,0.42c0.12,0.15,0.2,0.33,0.25,0.54c0.05,0.21,0.08,0.49,0.08,0.83
		v6.47c0,0.33-0.02,0.6-0.07,0.82c-0.04,0.22-0.12,0.4-0.25,0.54c-0.12,0.15-0.29,0.29-0.51,0.43h2.78
		c-0.17-0.11-0.3-0.22-0.41-0.33c-0.11-0.11-0.19-0.23-0.25-0.36c-0.05-0.13-0.09-0.29-0.12-0.48c-0.02-0.19-0.04-0.4-0.04-0.62
		v-6.11L175.2,45.65z M181.41,44.81c0,0.44-0.02,0.78-0.06,1.02c-0.03,0.24-0.1,0.43-0.2,0.57c-0.1,0.14-0.25,0.25-0.44,0.35h2.96
		c-0.2-0.1-0.34-0.22-0.44-0.35c-0.1-0.14-0.16-0.33-0.2-0.57c-0.03-0.25-0.05-0.59-0.05-1.02v-6.15c0-0.44,0.02-0.78,0.05-1.02
		c0.04-0.24,0.11-0.44,0.2-0.57c0.1-0.14,0.24-0.25,0.44-0.35h-2.96c0.19,0.1,0.34,0.22,0.44,0.36c0.1,0.14,0.17,0.33,0.2,0.57
		c0.04,0.24,0.06,0.58,0.06,1.02V44.81 M188.15,38.12c-0.24-0.63-0.35-1.05-0.35-1.24c0-0.07,0.01-0.12,0.01-0.17h-2.27
		c0.14,0.12,0.26,0.23,0.35,0.35c0.1,0.11,0.19,0.24,0.27,0.4c0.08,0.16,0.16,0.33,0.24,0.54c0.08,0.2,0.24,0.63,0.49,1.31
		l2.12,5.59c0.15,0.44,0.29,0.77,0.41,0.98c0.13,0.22,0.31,0.42,0.54,0.61c0.24,0.19,0.6,0.44,1.06,0.73l4.17-10.5h-2.37
		c0.38,0.15,0.56,0.44,0.56,0.87c0,0.21-0.03,0.44-0.1,0.69c-0.07,0.25-0.19,0.59-0.37,1.03l-2.2,5.66L188.15,38.12z M200.59,41.84
		c0.36,0,0.62,0.03,0.79,0.09c0.17,0.06,0.32,0.17,0.43,0.32v-1.62c-0.14,0.07-0.32,0.1-0.53,0.1h-2.09v-2.85
		c0.41-0.07,0.95-0.11,1.61-0.11c0.5,0,0.88,0.04,1.14,0.13c0.27,0.08,0.53,0.24,0.77,0.48v-1.78c-0.16,0.06-0.36,0.09-0.59,0.09
		h-5.19c0.2,0.1,0.34,0.22,0.44,0.36c0.1,0.13,0.16,0.32,0.2,0.56c0.04,0.24,0.06,0.58,0.06,1.03v6.13c0,0.45-0.02,0.79-0.06,1.04
		c-0.03,0.24-0.1,0.43-0.2,0.57c-0.1,0.14-0.25,0.26-0.44,0.36h6.51l0.72-2c-0.42,0.31-0.87,0.54-1.34,0.67
		c-0.47,0.13-1.04,0.2-1.7,0.2c-0.62,0-1.26-0.05-1.92-0.16v-3.63H200.59z M208.21,37.76c0.42-0.08,0.78-0.11,1.09-0.11
		c0.57,0,1.03,0.16,1.37,0.47c0.35,0.32,0.53,0.72,0.53,1.22c0,1.17-0.87,1.9-2.61,2.19c0.42,0.7,0.86,1.36,1.32,2
		c0.46,0.64,0.93,1.24,1.42,1.8c0.34,0.39,0.63,0.71,0.88,0.93c0.26,0.22,0.5,0.37,0.74,0.46c0.24,0.08,0.5,0.13,0.79,0.13
		c0.18,0,0.66-0.03,1.43-0.08c-0.62-0.32-1.28-0.84-1.99-1.57c-0.7-0.73-1.63-1.85-2.77-3.35c0.48-0.12,0.92-0.31,1.3-0.57
		c0.39-0.27,0.69-0.58,0.9-0.93c0.22-0.36,0.32-0.73,0.32-1.12c0-0.37-0.09-0.73-0.27-1.07c-0.18-0.35-0.44-0.65-0.76-0.88
		c-0.54-0.4-1.31-0.59-2.31-0.59c-0.26,0-0.49,0-0.66,0.01c-0.23,0.01-0.47,0.01-0.72,0.01h-2.27c0.19,0.1,0.34,0.22,0.44,0.36
		c0.1,0.14,0.17,0.33,0.2,0.57c0.04,0.24,0.06,0.58,0.06,1.02v6.15c0,0.44-0.02,0.78-0.06,1.02c-0.03,0.24-0.1,0.43-0.2,0.57
		c-0.1,0.14-0.25,0.25-0.44,0.35h2.96c-0.2-0.1-0.34-0.22-0.44-0.35c-0.1-0.14-0.16-0.33-0.2-0.57c-0.03-0.25-0.05-0.59-0.05-1.02
		V37.76 M222.37,36.79c-0.8-0.22-1.6-0.33-2.38-0.33s-1.47,0.11-2.06,0.33c-0.58,0.22-1.03,0.54-1.35,0.95
		c-0.32,0.4-0.48,0.88-0.48,1.43c0,0.33,0.07,0.65,0.22,0.96c0.15,0.32,0.35,0.58,0.59,0.81c0.23,0.2,0.5,0.39,0.81,0.57
		c0.31,0.17,0.76,0.39,1.35,0.64c0.65,0.29,1.1,0.5,1.37,0.65c0.27,0.14,0.48,0.28,0.63,0.42c0.34,0.3,0.51,0.66,0.51,1.09
		c0,0.3-0.1,0.56-0.31,0.8c-0.2,0.23-0.48,0.42-0.85,0.56c-0.36,0.14-0.75,0.2-1.18,0.2c-1.24,0-2.38-0.4-3.43-1.22l0.47,1.89
		c0.5,0.17,0.96,0.29,1.38,0.37c0.42,0.08,0.88,0.11,1.37,0.11c1.38,0,2.47-0.38,3.27-1.13c0.3-0.29,0.53-0.61,0.7-0.97
		c0.17-0.36,0.26-0.73,0.26-1.1c0-0.33-0.07-0.64-0.22-0.93c-0.14-0.29-0.35-0.53-0.62-0.73c-0.23-0.19-0.49-0.36-0.79-0.52
		c-0.29-0.15-0.79-0.39-1.49-0.71c-0.65-0.3-1.13-0.54-1.45-0.73c-0.32-0.19-0.54-0.38-0.67-0.57c-0.12-0.19-0.19-0.42-0.19-0.67
		c0-0.42,0.19-0.77,0.56-1.03c0.38-0.27,0.88-0.4,1.49-0.4c0.46,0,0.9,0.09,1.32,0.26c0.43,0.17,0.81,0.42,1.15,0.74V36.79
		 M226.64,44.81c0,0.44-0.02,0.78-0.06,1.02c-0.03,0.24-0.1,0.43-0.2,0.57c-0.1,0.14-0.25,0.25-0.44,0.35h2.96
		c-0.2-0.1-0.34-0.22-0.44-0.35c-0.1-0.14-0.16-0.33-0.2-0.57c-0.03-0.25-0.05-0.59-0.05-1.02v-6.15c0-0.44,0.02-0.78,0.05-1.02
		c0.04-0.24,0.11-0.44,0.2-0.57c0.1-0.14,0.24-0.25,0.44-0.35h-2.96c0.19,0.1,0.34,0.22,0.44,0.36c0.1,0.14,0.17,0.33,0.2,0.57
		c0.04,0.24,0.06,0.58,0.06,1.02V44.81 M239.05,36.6c-0.06,0.02-0.16,0.04-0.31,0.08c0.03,0-0.17,0.01-0.61,0.03h-5.87
		c-0.31,0-0.58-0.04-0.79-0.11l-0.58,1.82c0.31-0.23,0.6-0.38,0.87-0.46c0.27-0.08,0.66-0.12,1.15-0.12c0.55,0,0.97,0.02,1.26,0.05
		v6.92c0,0.44-0.02,0.78-0.06,1.02c-0.04,0.24-0.11,0.44-0.2,0.57c-0.1,0.14-0.24,0.25-0.43,0.35h3.09
		c-0.22-0.14-0.39-0.28-0.51-0.42c-0.12-0.15-0.21-0.33-0.25-0.55c-0.05-0.22-0.07-0.49-0.07-0.82v-7.07h0.25
		c0.51-0.03,0.87-0.05,1.1-0.05c0.44,0,0.77,0.04,0.98,0.13c0.21,0.08,0.37,0.23,0.48,0.45L239.05,36.6 M249.49,36.71h-2.7
		c0.16,0.08,0.3,0.2,0.4,0.34c0.11,0.14,0.16,0.28,0.16,0.42c0,0.21-0.1,0.45-0.29,0.74l-1.97,2.92l-2.35-3.76
		c-0.21-0.34-0.36-0.55-0.45-0.62c-0.09-0.07-0.26-0.11-0.5-0.11h-0.19l-1.58,0.06c0.31,0.18,0.55,0.35,0.71,0.52
		c0.16,0.16,0.39,0.46,0.68,0.9l2.69,4.24v2.45c0,0.46-0.01,0.79-0.04,1.01c-0.03,0.22-0.09,0.4-0.19,0.54
		c-0.09,0.14-0.24,0.27-0.43,0.4h3.02c-0.23-0.19-0.4-0.36-0.51-0.5c-0.11-0.15-0.18-0.31-0.22-0.5c-0.04-0.19-0.06-0.46-0.06-0.79
		v-2.61L249.49,36.71z M14.25,53.46c-1.61-0.44-3.2-0.66-4.77-0.66c-1.57,0-2.94,0.22-4.12,0.66c-1.17,0.44-2.06,1.07-2.7,1.89
		c-0.64,0.81-0.95,1.76-0.95,2.85c0,0.65,0.14,1.29,0.43,1.92c0.3,0.63,0.69,1.17,1.18,1.61c0.45,0.41,0.99,0.79,1.62,1.14
		c0.63,0.35,1.53,0.78,2.7,1.28c1.29,0.58,2.21,1.01,2.74,1.3c0.54,0.28,0.96,0.56,1.26,0.83c0.68,0.6,1.03,1.33,1.03,2.18
		c0,0.59-0.21,1.13-0.62,1.6c-0.4,0.47-0.97,0.84-1.69,1.12c-0.72,0.27-1.51,0.41-2.35,0.41c-2.48,0-4.77-0.81-6.86-2.43l0.94,3.79
		c0.99,0.34,1.91,0.58,2.76,0.73c0.85,0.15,1.76,0.23,2.74,0.23c2.76,0,4.94-0.75,6.54-2.26c0.6-0.57,1.06-1.22,1.4-1.94
		c0.35-0.71,0.52-1.45,0.52-2.2c0-0.66-0.15-1.28-0.45-1.85c-0.29-0.57-0.7-1.06-1.24-1.47c-0.45-0.38-0.98-0.72-1.57-1.03
		c-0.59-0.31-1.58-0.79-2.98-1.43c-1.3-0.59-2.27-1.08-2.9-1.45c-0.64-0.39-1.08-0.77-1.34-1.14c-0.25-0.39-0.38-0.83-0.38-1.34
		c0-0.85,0.38-1.54,1.13-2.06c0.76-0.54,1.76-0.81,2.99-0.81c0.91,0,1.8,0.18,2.64,0.52c0.86,0.34,1.62,0.83,2.3,1.48V53.46
		 M22.41,63.84l3.19-7.98l3.16,7.98H22.41z M31.39,70.47c0.36,0.89,0.53,1.45,0.53,1.71c0,0.24-0.06,0.43-0.19,0.57
		c-0.12,0.13-0.43,0.35-0.94,0.65h6.48c-0.71-0.41-1.27-0.89-1.68-1.44c-0.39-0.55-0.84-1.44-1.34-2.67L27.7,53.29h-4.97
		c0.64,0.3,0.95,0.7,0.95,1.19c0,0.29-0.12,0.75-0.36,1.38l-5.5,13.42c-0.52,1.32-0.95,2.22-1.3,2.71c-0.34,0.48-0.87,0.95-1.6,1.4
		h5.75c-0.42-0.23-0.72-0.43-0.88-0.62c-0.16-0.2-0.25-0.44-0.25-0.73c0-0.44,0.12-0.96,0.35-1.57l1.78-4.66h7.9L31.39,70.47z
		 M51.86,71.16c0.64,0.85,1.3,1.53,1.96,2.03c0.67,0.5,1.45,0.89,2.33,1.19v-17.5c0-0.66,0.04-1.21,0.13-1.64
		c0.1-0.44,0.27-0.81,0.51-1.09c0.24-0.29,0.58-0.58,1.03-0.86h-5.59c0.65,0.41,1.09,0.86,1.31,1.34c0.23,0.48,0.35,1.23,0.35,2.25
		v11.94L42.31,54.42c-0.4-0.54-0.65-0.91-0.74-1.13h-4.56c0.41,0.27,0.74,0.55,0.97,0.85c0.24,0.29,0.41,0.66,0.51,1.09
		c0.11,0.42,0.16,0.98,0.16,1.65V69.8c0,0.65-0.05,1.2-0.14,1.64c-0.09,0.43-0.25,0.8-0.49,1.09c-0.24,0.29-0.58,0.58-1.03,0.86
		h5.56c-0.34-0.23-0.61-0.45-0.82-0.66c-0.21-0.23-0.38-0.47-0.49-0.72c-0.11-0.26-0.19-0.58-0.25-0.96
		c-0.05-0.38-0.07-0.79-0.07-1.24V57.6L51.86,71.16z M69.3,63.43c0.78-0.09,1.57-0.14,2.37-0.14c1,0,1.82,0.08,2.46,0.25
		c0.64,0.16,1.19,0.43,1.68,0.82c0.97,0.73,1.46,1.77,1.46,3.09c0,0.8-0.21,1.48-0.62,2.05c-0.4,0.57-1,1-1.79,1.3
		c-0.78,0.29-1.71,0.44-2.8,0.44c-0.49,0-0.93-0.02-1.33-0.06c-0.39-0.04-0.87-0.11-1.42-0.23V63.43 M69.3,55.39
		c0.8-0.11,1.51-0.17,2.12-0.17c1.19,0,2.16,0.28,2.89,0.83c0.74,0.55,1.11,1.27,1.11,2.18c0,0.64-0.21,1.21-0.62,1.7
		c-0.41,0.48-1,0.85-1.75,1.12c-0.75,0.26-1.61,0.39-2.57,0.39c-0.41,0-0.81-0.02-1.18-0.06V55.39 M70.91,53.26
		c-0.57,0.02-1.11,0.03-1.62,0.03h-4.45c0.39,0.2,0.68,0.44,0.88,0.72c0.2,0.27,0.34,0.65,0.4,1.14c0.08,0.48,0.12,1.16,0.12,2.03
		v12.3c0,0.88-0.04,1.56-0.12,2.05c-0.07,0.48-0.2,0.86-0.4,1.14c-0.2,0.27-0.5,0.51-0.88,0.71h4.45h2.18
		c0.79-0.02,1.37-0.04,1.75-0.06c0.38-0.02,0.81-0.06,1.27-0.13c0.47-0.08,0.89-0.16,1.26-0.27c0.38-0.11,0.73-0.24,1.05-0.38
		c1.21-0.55,2.17-1.32,2.87-2.3c0.7-0.99,1.05-2.06,1.05-3.21c0-0.93-0.24-1.79-0.72-2.59c-0.48-0.79-1.17-1.43-2.05-1.92
		c-0.59-0.33-1.37-0.62-2.34-0.86c0.61-0.28,1.05-0.52,1.33-0.71c0.56-0.37,1-0.84,1.31-1.41c0.33-0.58,0.49-1.19,0.49-1.82
		c0-0.53-0.1-1.02-0.3-1.48c-0.19-0.47-0.48-0.9-0.87-1.28c-0.38-0.39-0.83-0.72-1.37-0.99c-0.48-0.26-1.05-0.45-1.72-0.55
		c-0.66-0.11-1.52-0.17-2.6-0.17H70.91 M89.21,63.56c0.71,0,1.24,0.06,1.59,0.18c0.35,0.12,0.64,0.34,0.87,0.65v-3.24
		c-0.29,0.13-0.64,0.2-1.05,0.2h-4.17v-5.69c0.83-0.14,1.9-0.21,3.22-0.21c0.99,0,1.75,0.08,2.28,0.25
		c0.54,0.17,1.05,0.49,1.53,0.96V53.1c-0.32,0.12-0.71,0.18-1.18,0.18H81.9c0.39,0.21,0.69,0.45,0.88,0.72
		c0.19,0.26,0.33,0.64,0.4,1.12c0.08,0.47,0.12,1.16,0.12,2.06v12.26c0,0.9-0.04,1.59-0.12,2.08c-0.07,0.48-0.2,0.86-0.4,1.14
		c-0.2,0.28-0.5,0.52-0.88,0.72h13.03l1.44-4c-0.84,0.62-1.73,1.07-2.69,1.34c-0.94,0.27-2.08,0.4-3.41,0.4
		c-1.23,0-2.51-0.1-3.84-0.31v-7.26H89.21z M101.33,55.39c0.84-0.15,1.56-0.23,2.18-0.23c1.14,0,2.05,0.32,2.74,0.95
		c0.7,0.63,1.05,1.44,1.05,2.43c0,2.35-1.74,3.8-5.21,4.38c0.85,1.39,1.73,2.73,2.64,4c0.91,1.27,1.86,2.47,2.83,3.6
		c0.67,0.79,1.26,1.41,1.76,1.86c0.51,0.44,1,0.75,1.47,0.92c0.47,0.17,1,0.25,1.59,0.25c0.37,0,1.32-0.06,2.86-0.17
		c-1.23-0.63-2.56-1.68-3.97-3.14c-1.41-1.46-3.26-3.69-5.55-6.7c0.96-0.23,1.83-0.62,2.6-1.14c0.77-0.54,1.37-1.16,1.81-1.86
		c0.43-0.72,0.65-1.46,0.65-2.23c0-0.73-0.18-1.45-0.55-2.15c-0.37-0.71-0.87-1.29-1.52-1.75c-1.09-0.79-2.63-1.19-4.62-1.19
		c-0.53,0-0.97,0.01-1.33,0.03c-0.45,0.02-0.93,0.03-1.44,0.03H96.8c0.38,0.2,0.68,0.44,0.88,0.72c0.2,0.27,0.34,0.65,0.4,1.14
		c0.08,0.48,0.12,1.16,0.12,2.03v12.3c0,0.88-0.04,1.56-0.12,2.05c-0.07,0.48-0.2,0.86-0.4,1.14c-0.2,0.27-0.5,0.51-0.88,0.71h5.92
		c-0.39-0.2-0.69-0.43-0.88-0.71c-0.19-0.27-0.33-0.65-0.4-1.14c-0.07-0.49-0.1-1.17-0.1-2.05V55.39 M129.97,71.16
		c0.65,0.85,1.3,1.53,1.96,2.03c0.67,0.5,1.45,0.89,2.33,1.19v-17.5c0-0.66,0.04-1.21,0.13-1.64c0.1-0.44,0.26-0.81,0.51-1.09
		c0.24-0.29,0.58-0.58,1.03-0.86h-5.59c0.65,0.41,1.09,0.86,1.31,1.34c0.23,0.48,0.35,1.23,0.35,2.25v11.94l-11.57-14.39
		c-0.4-0.54-0.65-0.91-0.74-1.13h-4.56c0.41,0.27,0.74,0.55,0.97,0.85c0.24,0.29,0.41,0.66,0.51,1.09c0.11,0.42,0.16,0.98,0.16,1.65
		V69.8c0,0.65-0.05,1.2-0.14,1.64c-0.09,0.43-0.25,0.8-0.49,1.09c-0.24,0.29-0.58,0.58-1.03,0.86h5.56
		c-0.34-0.23-0.61-0.45-0.82-0.66c-0.21-0.23-0.38-0.47-0.49-0.72c-0.11-0.26-0.19-0.58-0.25-0.96c-0.05-0.38-0.07-0.79-0.07-1.24
		V57.6L129.97,71.16z M142.9,63.84l3.19-7.98l3.16,7.98H142.9z M151.89,70.47c0.36,0.89,0.54,1.45,0.54,1.71
		c0,0.24-0.06,0.43-0.19,0.57c-0.12,0.13-0.43,0.35-0.94,0.65h6.49c-0.71-0.41-1.27-0.89-1.68-1.44c-0.39-0.55-0.84-1.44-1.34-2.67
		l-6.57-15.99h-4.97c0.64,0.3,0.95,0.7,0.95,1.19c0,0.29-0.12,0.75-0.36,1.38l-5.5,13.42c-0.52,1.32-0.95,2.22-1.3,2.71
		c-0.34,0.48-0.87,0.95-1.6,1.4h5.75c-0.42-0.23-0.72-0.43-0.88-0.62c-0.16-0.2-0.25-0.44-0.25-0.73c0-0.44,0.12-0.96,0.35-1.57
		l1.78-4.66h7.9L151.89,70.47z M162.53,55.39c0.84-0.15,1.56-0.23,2.18-0.23c1.14,0,2.05,0.32,2.74,0.95
		c0.7,0.63,1.05,1.44,1.05,2.43c0,2.35-1.74,3.8-5.21,4.38c0.85,1.39,1.73,2.73,2.64,4c0.91,1.27,1.86,2.47,2.83,3.6
		c0.67,0.79,1.26,1.41,1.76,1.86c0.51,0.44,1,0.75,1.47,0.92c0.47,0.17,1,0.25,1.59,0.25c0.37,0,1.32-0.06,2.86-0.17
		c-1.23-0.63-2.56-1.68-3.97-3.14c-1.41-1.46-3.25-3.69-5.55-6.7c0.96-0.23,1.83-0.62,2.6-1.14c0.77-0.54,1.37-1.16,1.81-1.86
		c0.43-0.72,0.65-1.46,0.65-2.23c0-0.73-0.18-1.45-0.55-2.15c-0.37-0.71-0.87-1.29-1.52-1.75c-1.09-0.79-2.63-1.19-4.62-1.19
		c-0.53,0-0.97,0.01-1.33,0.03c-0.45,0.02-0.93,0.03-1.44,0.03H158c0.38,0.2,0.68,0.44,0.88,0.72c0.2,0.27,0.34,0.65,0.4,1.14
		c0.08,0.48,0.12,1.16,0.12,2.03v12.3c0,0.88-0.04,1.56-0.12,2.05c-0.07,0.48-0.2,0.86-0.4,1.14c-0.2,0.27-0.5,0.51-0.88,0.71h5.92
		c-0.4-0.2-0.69-0.43-0.88-0.71c-0.19-0.27-0.33-0.65-0.4-1.14c-0.07-0.49-0.1-1.17-0.1-2.05V55.39 M180.48,55.63
		c1.1-0.22,2.05-0.32,2.86-0.32c1.35,0,2.56,0.2,3.62,0.59c1.07,0.39,1.95,0.96,2.66,1.72c0.67,0.72,1.2,1.59,1.58,2.61
		c0.38,1.03,0.58,2.09,0.58,3.19c0,2.67-1.02,4.73-3.05,6.2c-0.71,0.51-1.55,0.88-2.5,1.12c-0.94,0.24-2.09,0.35-3.44,0.35
		c-0.81,0-1.58-0.07-2.31-0.2V55.63 M180.98,73.39c2.17,0,3.87-0.07,5.11-0.23c1.25-0.15,2.3-0.41,3.13-0.79
		c1.18-0.51,2.23-1.23,3.13-2.16c0.91-0.94,1.6-2.03,2.09-3.26c0.5-1.23,0.75-2.51,0.75-3.83c0-1-0.13-1.95-0.4-2.84
		c-0.27-0.9-0.67-1.74-1.2-2.5c-0.52-0.77-1.15-1.45-1.89-2.03c-0.7-0.58-1.46-1.06-2.27-1.43c-0.81-0.38-1.69-0.65-2.66-0.82
		c-0.95-0.18-2.01-0.27-3.18-0.27c-1.01,0-1.83,0.01-2.46,0.03c-0.57,0.02-1.26,0.03-2.07,0.03h-3.15c0.39,0.2,0.68,0.44,0.88,0.72
		c0.2,0.27,0.34,0.65,0.4,1.14c0.08,0.48,0.12,1.16,0.12,2.03v12.15c0,1.31-0.09,2.21-0.27,2.7c-0.08,0.25-0.16,0.43-0.25,0.54
		c-0.09,0.1-0.38,0.38-0.88,0.82H180.98 M197.96,69.49c0,0.88-0.04,1.56-0.12,2.05c-0.07,0.48-0.2,0.86-0.4,1.14
		c-0.2,0.27-0.5,0.51-0.88,0.71h5.92c-0.4-0.2-0.69-0.43-0.88-0.71c-0.19-0.27-0.33-0.65-0.4-1.14c-0.07-0.49-0.1-1.17-0.1-2.05
		v-12.3c0-0.87,0.03-1.56,0.1-2.05c0.08-0.49,0.21-0.87,0.4-1.14c0.19-0.27,0.49-0.51,0.88-0.71h-5.92c0.38,0.2,0.68,0.44,0.88,0.72
		c0.2,0.27,0.34,0.65,0.4,1.14c0.08,0.48,0.12,1.16,0.12,2.03V69.49 M219.42,71.16c0.65,0.85,1.3,1.53,1.96,2.03
		c0.67,0.5,1.45,0.89,2.33,1.19v-17.5c0-0.66,0.04-1.21,0.13-1.64c0.1-0.44,0.26-0.81,0.51-1.09c0.24-0.29,0.58-0.58,1.03-0.86
		h-5.59c0.65,0.41,1.09,0.86,1.31,1.34c0.23,0.48,0.35,1.23,0.35,2.25v11.94l-11.57-14.39c-0.4-0.54-0.65-0.91-0.74-1.13h-4.56
		c0.41,0.27,0.74,0.55,0.97,0.85c0.24,0.29,0.41,0.66,0.51,1.09c0.11,0.42,0.16,0.98,0.16,1.65V69.8c0,0.65-0.05,1.2-0.14,1.64
		c-0.09,0.43-0.25,0.8-0.49,1.09c-0.24,0.29-0.58,0.58-1.03,0.86h5.56c-0.34-0.23-0.61-0.45-0.82-0.66
		c-0.21-0.23-0.38-0.47-0.49-0.72c-0.11-0.26-0.19-0.58-0.25-0.96c-0.05-0.38-0.07-0.79-0.07-1.24V57.6L219.42,71.16z M236.84,54.96
		c2.4,0,4.36,0.89,5.89,2.67c1.42,1.7,2.12,3.72,2.12,6.07c0,1.17-0.19,2.25-0.56,3.23c-0.37,0.98-0.91,1.83-1.62,2.56
		c-0.7,0.72-1.54,1.27-2.51,1.65c-0.97,0.38-2.03,0.57-3.16,0.57c-1.15,0-2.17-0.18-3.06-0.55c-0.89-0.38-1.69-0.96-2.41-1.74
		c-0.52-0.57-0.97-1.2-1.36-1.91c-0.38-0.71-0.66-1.45-0.87-2.23c-0.19-0.78-0.29-1.56-0.29-2.33c0-1.11,0.19-2.18,0.58-3.19
		c0.39-1.02,0.91-1.86,1.57-2.54c0.69-0.69,1.55-1.23,2.56-1.64C234.73,55.16,235.77,54.96,236.84,54.96 M237.28,52.77
		c-2.18,0-4.18,0.47-5.99,1.4c-1.81,0.92-3.23,2.2-4.26,3.84c-1.03,1.63-1.55,3.44-1.55,5.42c0,1.92,0.5,3.68,1.5,5.28
		c1.01,1.59,2.39,2.85,4.13,3.79c1.75,0.92,3.67,1.38,5.75,1.38c2.1,0,4.03-0.47,5.81-1.41c1.77-0.95,3.17-2.25,4.19-3.89
		c1.03-1.64,1.55-3.43,1.55-5.38c0-1.37-0.29-2.73-0.87-4.07c-0.57-1.34-1.33-2.46-2.3-3.36c-0.62-0.59-1.37-1.12-2.25-1.58
		c-0.88-0.47-1.81-0.82-2.79-1.06C239.22,52.89,238.25,52.77,237.28,52.77"/>
</g>
</svg>
